<svg id="Close-Icon-SVG-pdj4d3w" xmlns="http://www.w3.org/2000/svg" xmlns:xlink="http://www.w3.org/1999/xlink" width="74.263" height="74.263" viewBox="0 0 74.263 74.263">
  <defs>
    <clipPath id="clip-path">
      <rect id="Rectangle_59453" data-name="Rectangle 59453" width="74.263" height="74.263"/>
    </clipPath>
  </defs>
  <g id="Group_61468" data-name="Group 61468" clip-path="url(#clip-path)">
    <path id="Path_134989" data-name="Path 134989" d="M37.131,0A37.132,37.132,0,1,0,74.263,37.131,37.131,37.131,0,0,0,37.131,0m0,70.542A33.41,33.41,0,1,1,70.542,37.131,33.411,33.411,0,0,1,37.131,70.542"/>
    <path id="Path_134990" data-name="Path 134990" d="M51.111,20.293,37.132,34.272,23.152,20.293l-2.859,2.859,13.979,13.98L20.293,51.111l2.859,2.859,13.98-13.979L51.111,53.97l2.859-2.859L39.991,37.132,53.97,23.152Z"/>
  </g>
</svg>
